#!OML:ASF F:\VICON\USERDATA\INSTALL\rory3\rory3.ASF
:FULLY-SPECIFIED
:DEGREES
127
root -0.868043 16.2076 -19.8087 0.96424 1.74419 2.21928
lowerback 12.7472 1.12028 -6.08024
upperback -4.77367 0.556303 1.14674
thorax -12.558 0.811675 4.58024
lowerneck -9.10782 -6.94349 -4.38661
upperneck 18.0762 -9.55163 3.67498
head 7.43955 -4.55782 1.02136
rclavicle 2.04003e-014 -1.55052e-014
rhumerus -39.4444 -3.26916 -82.0455
rradius 22.3184
rwrist 12.7357
rhand -8.88379 19.3451
rfingers 7.12502
rthumb 17.0583 -9.926
lclavicle 2.04003e-014 -1.55052e-014
lhumerus -43.9437 9.09178 83.1588
lradius 18.2509
lwrist -5.97101
lhand -4.48411 17.8996
lfingers 7.12502
lthumb 21.289 46.7503
rfemur 3.21861 4.89668 19.643
rtibia 42.1846
rfoot -4.64899 -1.74177
rtoes 8.37243
lfemur -28.1784 -15.2857 -21.566
ltibia 35.0235
lfoot -6.87296 7.28969
ltoes 22.16
128
root -0.81001 16.2227 -19.6819 0.876482 1.61068 2.51008
lowerback 12.5597 1.11709 -6.06014
upperback -4.6181 0.55872 1.0349
thorax -12.2625 0.791268 4.44236
lowerneck -9.58976 -6.94097 -4.25725
upperneck 18.1493 -9.5372 3.58064
head 7.53699 -4.54123 0.953185
rclavicle 1.96051e-014 -6.75868e-015
rhumerus -39.5372 -3.58684 -81.7221
rradius 22.4292
rwrist 12.6614
rhand -8.13193 19.302
rfingers 7.12502
rthumb 17.7819 -9.90494
lclavicle 1.96051e-014 -6.75868e-015
lhumerus -43.5711 8.75278 83.4436
lradius 18.3923
lwrist -5.57763
lhand -5.07337 17.3807
lfingers 7.12502
lthumb 20.7229 46.2942
rfemur 1.65881 4.18786 18.7168
rtibia 44.74
rfoot -1.5765 -1.86553
rtoes 7.52131
lfemur -27.4406 -15.6054 -22.2272
ltibia 34.9245
lfoot -7.41852 7.588
ltoes 22.135
129
root -0.760267 16.228 -19.5554 0.607133 1.51458 2.84718
lowerback 12.7399 1.15233 -6.22129
upperback -4.52557 0.555515 0.927496
thorax -12.2671 0.79458 4.41567
lowerneck -9.72312 -6.98244 -4.13509
upperneck 18.2771 -9.58801 3.4319
head 7.59088 -4.56686 0.873959
rclavicle -2.78299e-015 1.07344e-014
rhumerus -39.8376 -3.73316 -81.5289
rradius 22.4669
rwrist 12.3994
rhand -8.61641 20.3633
rfingers 7.12502
rthumb 17.3157 -8.8853
lclavicle -2.78299e-015 1.07344e-014
lhumerus -43.48 8.11744 83.8491
lradius 18.8127
lwrist -5.07377
lhand -5.16981 17.6093
lfingers 7.12502
lthumb 20.6302 46.533
rfemur 0.274707 3.65436 17.8672
rtibia 47.3483
rfoot 1.36803 -2.04667
rtoes 5.73031
lfemur -26.4287 -15.6299 -22.9986
ltibia 34.6736
lfoot -7.74247 7.65674
ltoes 22.5188
130
root -0.712785 16.2312 -19.4286 0.451264 1.35938 3.21954
lowerback 12.8358 1.18954 -6.39735
upperback -4.54632 0.552301 0.801093
thorax -12.3513 0.803686 4.37631
lowerneck -9.47808 -6.95103 -4.22464
upperneck 18.4634 -9.55312 3.45905
head 7.6131 -4.55602 0.906717
rclavicle -2.23633e-016 5.96354e-015
rhumerus -40.4543 -3.54331 -81.5451
rradius 22.4527
rwrist 11.9706
rhand -9.98782 21.7693
rfingers 7.12502
rthumb 15.9954 -7.59032
lclavicle -2.23633e-016 5.96354e-015
lhumerus -43.4386 7.61049 84.102
lradius 18.9993
lwrist -4.49284
lhand -4.99524 17.6007
lfingers 7.12502
lthumb 20.798 46.5061
rfemur -1.23473 3.30079 17.0166
rtibia 49.9999
rfoot 4.02553 -2.09609
rtoes 5.97286
lfemur -25.5037 -15.4477 -23.8044
ltibia 34.376
lfoot -7.81629 7.70165
ltoes 22.022
131
root -0.666661 16.236 -19.3067 0.487839 1.20885 3.64555
lowerback 12.7187 1.19243 -6.64654
upperback -4.62862 0.504669 0.687458
thorax -12.374 0.797905 4.40265
lowerneck -9.09367 -6.90801 -4.38208
upperneck 18.4597 -9.50214 3.5613
head 7.55462 -4.5402 0.984062
rclavicle 1.97542e-014 -2.26615e-014
rhumerus -41.0932 -3.30929 -81.5132
rradius 22.5314
rwrist 11.7391
rhand -10.1945 21.491
rfingers 7.12502
rthumb 15.7964 -7.88454
lclavicle 1.97542e-014 -2.26615e-014
lhumerus -43.2382 7.17121 84.3546
lradius 19.0243
lwrist -3.87142
lhand -4.82185 17.4639
lfingers 7.12502
lthumb 20.9646 46.3509
rfemur -3.05419 3.01296 16.1256
rtibia 52.7033
rfoot 6.87188 -2.30708
rtoes 10.9268
lfemur -24.7821 -15.2391 -24.6042
ltibia 34.0063
lfoot -7.85663 7.779
ltoes 21.1436
132
root -0.623381 16.2447 -19.1873 0.375106 0.943618 4.07128
lowerback 12.8586 1.26702 -6.9702
upperback -4.62759 0.527027 0.607165
thorax -12.4685 0.833226 4.49207
lowerneck -9.20529 -6.91389 -4.45852
upperneck 18.4803 -9.49886 3.58126
head 7.58602 -4.53994 0.998364
rclavicle 1.20016e-014 -7.95139e-015
rhumerus -41.4628 -3.52177 -81.1847
rradius 22.7618
rwrist 12.2182
rhand -9.49647 20.5897
rfingers 7.12502
rthumb 16.4685 -8.73129
lclavicle 1.20016e-014 -7.95139e-015
lhumerus -43.048 6.71077 84.691
lradius 19.2226
lwrist -3.61032
lhand -4.54566 17.9707
lfingers 7.12502
lthumb 21.2299 46.8281
rfemur -4.77452 2.80734 15.2573
rtibia 55.3762
rfoot 9.71973 -2.5293
rtoes 13.5045
lfemur -23.8117 -14.9466 -25.4245
ltibia 33.5245
lfoot -7.9624 7.91219
ltoes 20.1508
133
root -0.582946 16.258 -19.0675 0.250066 0.634877 4.64512
lowerback 12.962 1.35148 -7.46044
upperback -4.5743 0.529662 0.470314
thorax -12.4821 0.86516 4.61741
lowerneck -9.60102 -6.8643 -4.317
upperneck 18.5723 -9.4145 3.43318
head 7.66848 -4.49562 0.921131
rclavicle -1.76421e-015 1.39149e-014
rhumerus -41.6078 -3.95429 -80.8341
rradius 22.885
rwrist 12.956
rhand -8.92681 20.1833
rfingers 7.12502
rthumb 17.0169 -9.09137
lclavicle -1.76421e-015 1.39149e-014
lhumerus -43.0619 6.39964 84.923
lradius 19.7729
lwrist -3.32211
lhand -4.53011 18.2057
lfingers 7.12502
lthumb 21.2448 47.0614
rfemur -6.40434 2.67496 14.2735
rtibia 57.985
rfoot 12.1303 -2.66055
rtoes 11.1685
lfemur -22.7688 -14.7108 -26.3759
ltibia 32.9769
lfoot -8.28928 7.9803
ltoes 20.3201
134
root -0.541472 16.2684 -18.9438 0.196892 0.444636 5.27823
lowerback 12.821 1.33071 -7.96649
upperback -4.55562 0.408836 0.339728
thorax -12.37 0.836415 4.7875
lowerneck -9.28189 -6.80514 -4.33278
upperneck 18.3451 -9.30751 3.31281
head 7.52729 -4.46469 0.911101
rclavicle 5.36719e-015 -3.18055e-015
rhumerus -41.8155 -3.88336 -80.7125
rradius 22.8452
rwrist 12.6312
rhand -8.64296 19.7897
rfingers 7.12502
rthumb 17.2901 -9.46118
lclavicle 5.36719e-015 -3.18055e-015
lhumerus -43.1935 6.26729 85.0337
lradius 20.3815
lwrist -2.94258
lhand -4.53012 18.0458
lfingers 7.12502
lthumb 21.2448 46.9015
rfemur -8.06297 2.40411 13.208
rtibia 60.4866
rfoot 14.4041 -2.83947
rtoes 9.45037
lfemur -21.8165 -14.7664 -27.3766
ltibia 32.4679
lfoot -8.57987 8.18075
ltoes 20.1863
